<?xml version="1.0" encoding="utf-8"?>
<!-- Generator: Adobe Illustrator 19.2.0, SVG Export Plug-In . SVG Version: 6.00 Build 0)  -->
<svg version="1.1" id="Layer_1" xmlns="http://www.w3.org/2000/svg" xmlns:xlink="http://www.w3.org/1999/xlink" x="0px" y="0px"
	 viewBox="0 0 187 187" style="enable-background:new 0 0 187 187;" xml:space="preserve">
<style type="text/css">
	.st0{fill:#CB2027;}
</style>
<path class="st0" d="M93.9,0.4c-51.8,0-93.7,42-93.7,93.7c0,51.8,42,93.7,93.7,93.7s93.7-42,93.7-93.7
	C187.6,42.4,145.7,0.4,93.9,0.4z M140.9,97.2c-1.7,5.5-4.3,10.5-8,14.9c-5.7,6.8-13.1,10.7-21.7,12.5c-4.4,0.9-8.8,0.9-13.1-0.3
	c-4.1-1.2-7.6-3.5-10.2-6.9c-0.1-0.2-0.2-0.3-0.4-0.4c0,0-0.1,0-0.3-0.1c-0.8,3.1-1.5,6.1-2.3,9.1c-1,3.8-1.7,7.6-2.9,11.3
	c-1.7,5.4-4.2,10.5-7.3,15.4c-1.5,2.3-3,4.5-4.9,6.5c-0.3,0.3-0.5,0.6-0.8,0.8c-0.9,0.7-1.6,0.5-1.9-0.6c-0.1-0.4-0.2-0.8-0.2-1.3
	c-0.6-6.8-0.8-13.7-0.2-20.5c0.4-5.3,1.8-10.4,3-15.6c2.3-9.5,4.5-19,6.8-28.5c0.2-0.7,0.1-1.3-0.1-1.9c-1.3-4.3-2-8.6-1.7-13.1
	c0.1-2.4,0.6-4.7,1.5-6.9c1.6-4,4.4-6.9,8.3-8.8c4.5-2.1,10.5,0.1,12.7,4.7c1.1,2.2,1.3,4.6,1.1,7c-0.4,4.1-1.4,8-2.7,11.9
	c-1.5,4.5-2.6,9.2-3.8,13.8c-0.3,1.1,0,2.1,0.2,3.2c1.1,5,4.7,8.3,9.7,9c4.7,0.7,8.7-0.9,12.2-3.8c2.9-2.4,5-5.4,6.7-8.8
	c2.3-4.4,3.6-9.1,4.5-14c0.7-4.1,1.2-8.2,1.1-12.3c-0.1-2.8-0.4-5.6-1.2-8.3c-1.8-6.6-6-11.5-12-14.6c-15.5-8.2-34.3-3.8-44.4,8.3
	c-6,7.1-8.7,15.4-8,24.7c0.4,4.6,1.9,8.8,5.2,12.2c0.9,1,1.2,2.1,0.8,3.4c-0.7,2.1-1.3,4.2-2,6.3c-0.6,1.8-1.7,2.4-3.5,1.7
	c-2.2-0.9-4.1-2.3-5.9-3.8c-4.6-4.2-7.3-9.4-8.4-15.4c-1.7-9-0.2-17.6,3.5-25.8c5.2-11.9,14.3-19.7,26.3-24.2c5.9-2.2,12-3.6,18.2-4
	c7.2-0.4,14.1,0.9,20.9,3.2c5.1,1.8,9.7,4.3,13.8,7.7c6.8,5.7,11,13,13.4,21.4c0.8,2.9,0.8,5.9,0.9,8.9
	C144.1,82.6,143.2,90,140.9,97.2z"/>
</svg>
